<svg width="67" height="77" viewBox="0 0 67 77" fill="none" xmlns="http://www.w3.org/2000/svg">
<path d="M60.0069 67.8125L59.5881 68.0857L60.0069 67.8125ZM9.73329 9.00041L9.39829 9.3716L9.73329 9.00041ZM0.13228 0.81167C0.118146 0.535886 0.330257 0.300869 0.606036 0.286736L5.10014 0.0564415C5.37592 0.0423139 5.61094 0.25442 5.62507 0.530198C5.63921 0.805981 5.42709 1.041 5.15131 1.05513L1.15656 1.25984L1.36126 5.2546C1.37539 5.53037 1.16329 5.7654 0.887507 5.77953C0.611723 5.79366 0.376704 5.58155 0.36257 5.30577L0.13228 0.81167ZM65.3567 76.9294L59.5881 68.0857L60.4257 67.5393L66.1943 76.3831L65.3567 76.9294ZM9.39829 9.3716L0.296626 1.15726L0.966623 0.414899L10.0683 8.62923L9.39829 9.3716ZM59.5881 68.0857C45.4627 46.43 28.5924 26.6945 9.39829 9.3716L10.0683 8.62923C29.3265 26.01 46.2531 45.8113 60.4257 67.5393L59.5881 68.0857Z" fill="#262626"/>
</svg>
