<svg width="364" height="198" viewBox="0 0 364 198" fill="none" xmlns="http://www.w3.org/2000/svg">
<path d="M168.74 40.2987L166.414 35.8727L168.74 40.2987ZM154.673 47.6915L157 52.1174L154.673 47.6915ZM29.0128 173.059L33.4333 175.395L29.0128 173.059ZM20.4747 196.778C17.8359 197.592 15.037 196.112 14.2232 193.474L0.960686 150.472C0.146847 147.834 1.62624 145.035 4.26501 144.221C6.90378 143.407 9.70267 144.886 10.5165 147.525L22.3054 185.748L60.5287 173.96C63.1675 173.146 65.9664 174.625 66.7803 177.264C67.5941 179.903 66.1147 182.702 63.4759 183.515L20.4747 196.778ZM269.864 8.28647L270.588 13.2338L269.864 8.28647ZM264.884 9.01505L265.608 13.9624L264.884 9.01505ZM350.254 9.39339L349.394 14.3189L349.394 14.3189L350.254 9.39339ZM305.904 5.61405L305.891 0.614069L305.904 5.61405ZM171.066 44.7246L157 52.1174L152.347 43.2655L166.414 35.8727L171.066 44.7246ZM33.4333 175.395L23.4216 194.336L14.5806 189.664L24.5923 170.722L33.4333 175.395ZM270.588 13.2338L265.608 13.9624L264.16 4.06771L269.141 3.33913L270.588 13.2338ZM361.357 16.407L349.394 14.3189L351.113 4.46785L363.077 6.55591L361.357 16.407ZM349.394 14.3189C335.038 11.8134 320.491 10.5736 305.918 10.614L305.891 0.614069C321.049 0.572051 336.181 1.8616 351.113 4.46785L349.394 14.3189ZM269.141 3.33913C281.31 1.55882 293.591 0.648162 305.891 0.614069L305.918 10.614C294.094 10.6468 282.288 11.5223 270.588 13.2338L269.141 3.33913ZM157 52.1174C104.319 79.805 61.244 122.779 33.4333 175.395L24.5923 170.722C53.3458 116.322 97.8806 71.8916 152.347 43.2655L157 52.1174ZM166.414 35.8727C196.962 19.8174 230.013 9.06306 264.16 4.06771L265.608 13.9624C232.58 18.794 200.613 29.1957 171.066 44.7246L166.414 35.8727Z" fill="white"/>
</svg>
