<svg width="69" height="77" viewBox="0 0 69 77" fill="none" xmlns="http://www.w3.org/2000/svg">
<path d="M6.79837 67.1154L6.38529 66.8337L6.79837 67.1154ZM58.2527 9.36702L58.58 9.74499L58.2527 9.36702ZM68.029 1.36855C68.0488 1.09312 67.8416 0.8538 67.5661 0.834021L63.0777 0.511659C62.8022 0.491881 62.5629 0.699124 62.5431 0.974559C62.5234 1.24999 62.7306 1.48931 63.006 1.50909L66.9958 1.79564L66.7092 5.78536C66.6894 6.06079 66.8967 6.30011 67.1721 6.31989C67.4476 6.33967 67.6869 6.13242 67.7067 5.85699L68.029 1.36855ZM1.25504 76.1307L7.21144 67.3972L6.38529 66.8337L0.428886 75.5672L1.25504 76.1307ZM58.58 9.74499L67.8576 1.71071L67.203 0.954761L57.9254 8.98904L58.58 9.74499ZM7.21144 67.3972C21.7749 46.0437 39.0412 26.6653 58.58 9.74499L57.9254 8.98904C38.3213 25.9659 20.9973 45.409 6.38529 66.8337L7.21144 67.3972Z" fill="#262626"/>
</svg>
