<svg width="67" height="79" viewBox="0 0 67 79" fill="none" xmlns="http://www.w3.org/2000/svg">
<path d="M58.4676 8.3068L58.8051 8.67564L58.4676 8.3068ZM8.6044 67.4673L9.02507 67.7375L8.6044 67.4673ZM2.08425 78.2711C1.81443 78.3299 1.54807 78.1588 1.48932 77.8889L0.531964 73.492C0.473219 73.2221 0.644326 72.9558 0.914144 72.897C1.18397 72.8383 1.45032 73.0094 1.50907 73.2792L2.36006 77.1876L6.26849 76.3367C6.53831 76.2779 6.80467 76.449 6.86342 76.7188C6.92216 76.9887 6.75105 77.255 6.48123 77.3138L2.08425 78.2711ZM66.5942 1.54696L58.8051 8.67564L58.13 7.93796L65.9191 0.809276L66.5942 1.54696ZM9.02507 67.7375L2.39855 78.0528L1.5572 77.5123L8.18373 67.1971L9.02507 67.7375ZM58.8051 8.67564C39.732 26.1317 22.9995 45.9841 9.02507 67.7375L8.18373 67.1971C22.2048 45.371 38.9932 25.4523 58.13 7.93796L58.8051 8.67564Z" fill="#262626"/>
</svg>
