<svg width="186" height="52" viewBox="0 0 186 52" fill="none" xmlns="http://www.w3.org/2000/svg">
<path d="M74.0992 48.1087L74.0254 48.6032L74.0992 48.1087ZM88.3195 50.2325L88.3934 49.7379L88.3195 50.2325ZM165.816 29.3474L165.503 28.957L165.816 29.3474ZM185.497 14.0552C185.527 13.7808 185.33 13.5336 185.055 13.5031L180.583 13.0061C180.308 12.9756 180.061 13.1734 180.031 13.4478C180 13.7223 180.198 13.9695 180.472 14L184.448 14.4417L184.006 18.4173C183.976 18.6917 184.173 18.9389 184.448 18.9694C184.722 18.9999 184.97 18.8021 185 18.5277L185.497 14.0552ZM118.664 50.1247L118.587 49.6307L118.664 50.1247ZM74.0254 48.6032L88.2456 50.727L88.3934 49.7379L74.1731 47.6142L74.0254 48.6032ZM166.128 29.7379L185.312 14.3904L184.688 13.6096L165.503 28.957L166.128 29.7379ZM118.741 50.6187C136.085 47.9023 152.42 40.7047 166.128 29.7379L165.503 28.957C151.931 39.815 135.759 46.9413 118.587 49.6307L118.741 50.6187ZM88.2456 50.727C98.3576 52.2372 108.64 52.2007 118.741 50.6187L118.587 49.6307C108.586 51.197 98.405 51.2332 88.3934 49.7379L88.2456 50.727ZM0.0792428 0.770117C16.68 26.6288 43.6337 44.0642 74.0254 48.6032L74.1731 47.6142C44.0666 43.1177 17.3657 25.8459 0.920757 0.229883L0.0792428 0.770117Z" fill="#262626"/>
</svg>
