<svg width="69" height="76" viewBox="0 0 69 76" fill="none" xmlns="http://www.w3.org/2000/svg">
<path d="M8.72712 7.43519L9.05275 7.05577L8.72712 7.43519ZM60.4373 64.9546L60.0255 65.2382L60.4373 64.9546ZM67.3067 75.5548C67.5783 75.6049 67.839 75.4253 67.8891 75.1538L68.7054 70.7284C68.7555 70.4568 68.5759 70.1961 68.3044 70.146C68.0328 70.0959 67.7721 70.2755 67.722 70.547L66.9964 74.4807L63.0628 73.7551C62.7912 73.705 62.5305 73.8845 62.4804 74.1561C62.4303 74.4277 62.6098 74.6884 62.8814 74.7385L67.3067 75.5548ZM0.379506 0.929791L8.40148 7.81461L9.05275 7.05577L1.03078 0.170948L0.379506 0.929791ZM60.0255 65.2382L66.9856 75.3466L67.8092 74.7795L60.8491 64.671L60.0255 65.2382ZM8.40148 7.81461C28.0152 24.648 45.3674 43.9496 60.0255 65.2382L60.8491 64.671C46.1421 43.3114 28.732 23.9454 9.05275 7.05577L8.40148 7.81461Z" fill="#262626"/>
</svg>
