<svg width="394" height="217" viewBox="0 0 394 217" fill="none" xmlns="http://www.w3.org/2000/svg">
<path d="M205.31 41.0202L202.984 45.446L205.31 41.0202ZM234.239 56.2266L236.565 51.8008L234.239 56.2266ZM359.891 181.602L364.311 179.266L359.891 181.602ZM374.03 215.925C376.669 216.739 379.468 215.259 380.282 212.621L393.548 169.62C394.362 166.982 392.882 164.183 390.244 163.369C387.605 162.555 384.806 164.034 383.992 166.673L372.201 204.895L333.978 193.104C331.339 192.29 328.54 193.769 327.726 196.407C326.912 199.046 328.391 201.845 331.03 202.659L374.03 215.925ZM99.7223 8.34759L98.9982 13.2949L98.9982 13.2949L99.7223 8.34759ZM109.168 9.73009L109.892 4.7828L109.892 4.78279L109.168 9.73009ZM33.839 5.12022L33.8532 0.120242L33.8461 0.120221L33.839 0.12022L33.839 5.12022ZM57.1293 5.18636L57.1435 0.186378L57.1435 0.18638L57.1293 5.18636ZM202.984 45.446L231.912 60.6524L236.565 51.8008L207.637 36.5944L202.984 45.446ZM355.47 183.938L371.084 213.483L379.925 208.811L364.311 179.266L355.47 183.938ZM98.9982 13.2949L108.444 14.6774L109.892 4.78279L100.446 3.40029L98.9982 13.2949ZM0.00075299 10.1204L33.839 10.1202L33.839 0.12022L0.000713231 0.120356L0.00075299 10.1204ZM33.8248 10.1202L57.1151 10.1863L57.1435 0.18638L33.8532 0.120242L33.8248 10.1202ZM100.446 3.4003C86.1067 1.30156 71.6358 0.227535 57.1435 0.186378L57.1151 10.1863C71.1322 10.2261 85.1287 11.265 98.9982 13.2949L100.446 3.4003ZM231.912 60.6524C284.591 88.3435 327.663 131.32 355.47 183.938L364.311 179.266C335.562 124.864 291.03 80.4306 236.565 51.8008L231.912 60.6524ZM207.637 36.5944C177.09 20.5371 144.039 9.78047 109.892 4.7828L108.444 14.6774C141.471 19.5112 173.438 29.9151 202.984 45.446L207.637 36.5944Z" fill="white"/>
</svg>
