<svg width="139" height="139" viewBox="0 0 139 139" fill="none" xmlns="http://www.w3.org/2000/svg">
<path d="M74.2824 74.8498C74.4694 75.1565 73.6779 77.187 73.5404 77.3278C69.9629 80.8609 68.795 93.1129 68.7117 94.8582C68.527 98.9001 66.0562 102.804 64.34 101.768C62.6877 100.774 62.0497 92.2831 61.8615 90.5718C61.3928 86.4042 62.1354 81.5245 63.7902 77.7419C65.5367 73.7423 71.2732 70.0114 74.2829 74.8479" fill="url(#paint0_linear_1_33)"/>
<path d="M49.8401 99.9352C43.2862 103.427 40.4369 97.7875 36.3902 90.1814C32.3319 82.5717 28.6141 75.8778 35.1609 72.3911C41.7215 68.8912 75.4415 64.832 71.8075 70.5446C67.1926 77.8176 56.4007 96.4354 49.8365 99.9345" fill="url(#paint1_linear_1_33)"/>
<path d="M100.313 88.3917C104.137 94.7632 98.6436 97.8937 91.2586 102.324C83.8674 106.76 77.3675 110.813 73.5495 104.446C69.7247 98.0688 63.9534 64.6055 69.8478 67.9368C77.3453 72.1813 96.4854 82.0169 100.316 88.3922" fill="url(#paint2_linear_1_33)"/>
<path d="M106.168 68.4275C112.697 64.8913 109.57 59.3941 105.466 51.8204C101.357 44.242 97.8339 37.442 91.2955 40.9774C84.7682 44.5188 62.7675 70.3858 69.5353 70.5226C78.1444 70.6878 99.6303 71.9679 106.166 68.427" fill="url(#paint3_linear_1_33)"/>
<path d="M35.8637 56.1844C31.0769 50.5103 36.0039 46.5439 42.5934 40.988C49.1866 35.4377 54.9559 30.3967 59.7358 36.0743C64.5246 41.7624 75.545 73.8865 69.1961 71.5295C61.1167 68.5375 40.6549 61.873 35.8625 56.1842" fill="url(#paint4_linear_1_33)"/>
<defs>
<linearGradient id="paint0_linear_1_33" x1="62.9424" y1="101.497" x2="69.8492" y2="72.2767" gradientUnits="userSpaceOnUse">
<stop stop-color="#005676"/>
<stop offset="1" stop-color="#273081"/>
</linearGradient>
<linearGradient id="paint1_linear_1_33" x1="40.7768" y1="97.7646" x2="68.3353" y2="70.5481" gradientUnits="userSpaceOnUse">
<stop stop-color="#005676"/>
<stop offset="1" stop-color="#273081"/>
</linearGradient>
<linearGradient id="paint2_linear_1_33" x1="94.1412" y1="104.734" x2="69.5643" y2="69.7188" gradientUnits="userSpaceOnUse">
<stop stop-color="#005676"/>
<stop offset="1" stop-color="#273081"/>
</linearGradient>
<linearGradient id="paint3_linear_1_33" x1="102.814" y1="42.9168" x2="71.1282" y2="68.7675" gradientUnits="userSpaceOnUse">
<stop stop-color="#005676"/>
<stop offset="1" stop-color="#273081"/>
</linearGradient>
<linearGradient id="paint4_linear_1_33" x1="39.5556" y1="43.9376" x2="69.135" y2="70.637" gradientUnits="userSpaceOnUse">
<stop stop-color="#005676"/>
<stop offset="1" stop-color="#273081"/>
</linearGradient>
</defs>
</svg>
