<svg width="28" height="18" viewBox="0 0 28 18" fill="none" xmlns="http://www.w3.org/2000/svg">
<path d="M26.4617 10.9303L27.246 9.93687L26.1024 9.39639C24.1223 8.49108 22.3838 7.1314 21.0281 5.42785C19.6332 3.60665 17.7405 2.22865 15.579 1.46054C14.4506 1.03496 13.2338 0.898364 12.0392 1.0632C10.8446 1.22803 9.71017 1.68905 8.73925 2.40429C7.48427 3.32757 6.49046 4.56083 5.85507 5.9834C6.62567 5.66618 7.41907 5.40743 8.22852 5.20936C9.99638 4.83142 11.8342 4.94729 13.5405 5.54429C15.1866 6.11718 16.6756 7.06763 17.8882 8.31949C16.5149 7.35656 14.9561 6.69017 13.3111 6.36275C12.5215 6.20083 11.7144 6.14028 10.9095 6.18257C10.1221 6.24132 9.343 6.38185 8.58474 6.60188C7.06037 7.11983 5.62063 7.85955 4.31191 8.79721C2.98291 9.72254 1.7418 10.7681 0.604258 11.9207L2.04946 13.3032C3.12122 12.3189 4.26163 11.412 5.46206 10.5894C5.94673 12.0899 6.8069 13.4415 7.96091 14.516C9.02418 15.5318 10.2803 16.3241 11.655 16.846C19.4007 19.7581 26.1506 11.2555 26.4617 10.9303Z" fill="url(#paint0_linear_1_39)"/>
<defs>
<linearGradient id="paint0_linear_1_39" x1="5.53716" y1="10.6197" x2="28.8973" y2="11.5166" gradientUnits="userSpaceOnUse">
<stop stop-color="#005676"/>
<stop offset="1" stop-color="#273081"/>
</linearGradient>
</defs>
</svg>
