<svg width="16" height="17" viewBox="0 0 16 17" fill="none" xmlns="http://www.w3.org/2000/svg">
<path d="M15.3723 13.8734C14.9709 12.9191 14.3885 12.0523 13.6574 11.3212C12.9285 10.5881 12.0651 10.0035 11.1149 9.59987C11.1064 9.5956 11.0979 9.59347 11.0893 9.5892C12.4149 8.62814 13.2766 7.06269 13.2766 5.29648C13.2766 2.3706 10.9149 0 8 0C5.08513 0 2.72344 2.3706 2.72344 5.29648C2.72344 7.06269 3.58514 8.62814 4.91066 9.59133C4.90215 9.5956 4.89364 9.59774 4.88513 9.60201C3.93194 10.0057 3.07663 10.5844 2.34259 11.3234C1.61219 12.055 1.02984 12.9216 0.627709 13.8755C0.232652 14.8093 0.0195891 15.8105 5.32039e-05 16.8249C-0.000514675 16.8477 0.00346833 16.8703 0.0117677 16.8916C0.020067 16.9128 0.0325146 16.9321 0.0483771 16.9485C0.0642397 16.9648 0.0831961 16.9777 0.104129 16.9866C0.125063 16.9955 0.14755 17 0.170265 17H1.44685C1.54047 17 1.61494 16.9253 1.61706 16.8334C1.65962 15.1847 2.31919 13.6406 3.48514 12.4702C4.69151 11.2593 6.29363 10.593 8 10.593C9.70637 10.593 11.3085 11.2593 12.5149 12.4702C13.6808 13.6406 14.3404 15.1847 14.3829 16.8334C14.3851 16.9274 14.4595 17 14.5531 17H15.8297C15.8524 17 15.8749 16.9955 15.8959 16.9866C15.9168 16.9777 15.9358 16.9648 15.9516 16.9485C15.9675 16.9321 15.9799 16.9128 15.9882 16.8916C15.9965 16.8703 16.0005 16.8477 15.9999 16.8249C15.9787 15.804 15.768 14.8109 15.3723 13.8734ZM8 8.96985C7.02341 8.96985 6.10427 8.58756 5.41278 7.89347C4.7213 7.19937 4.34045 6.27676 4.34045 5.29648C4.34045 4.31621 4.7213 3.39359 5.41278 2.6995C6.10427 2.0054 7.02341 1.62312 8 1.62312C8.97659 1.62312 9.89573 2.0054 10.5872 2.6995C11.2787 3.39359 11.6595 4.31621 11.6595 5.29648C11.6595 6.27676 11.2787 7.19937 10.5872 7.89347C9.89573 8.58756 8.97659 8.96985 8 8.96985Z" fill="#273081"/>
</svg>
