<svg width="137" height="137" viewBox="0 0 137 137" fill="none" xmlns="http://www.w3.org/2000/svg">
<path d="M68.5 0C50.3327 0 32.9094 7.21694 20.0632 20.0632C7.21694 32.9094 0 50.3327 0 68.5C0 86.6673 7.21694 104.091 20.0632 116.937C32.9094 129.783 50.3327 137 68.5 137C86.6673 137 104.091 129.783 116.937 116.937C129.783 104.091 137 86.6673 137 68.5C137 50.3327 129.783 32.9094 116.937 20.0632C104.091 7.21694 86.6673 0 68.5 0V0ZM94.1875 34.25C98.914 34.25 102.75 40.004 102.75 47.0938C102.75 54.1835 98.914 59.9375 94.1875 59.9375C89.461 59.9375 85.625 54.1835 85.625 47.0938C85.625 40.004 89.461 34.25 94.1875 34.25ZM42.8125 34.25C47.539 34.25 51.375 40.004 51.375 47.0938C51.375 54.1835 47.539 59.9375 42.8125 59.9375C38.086 59.9375 34.25 54.1835 34.25 47.0938C34.25 40.004 38.086 34.25 42.8125 34.25ZM68.5 119.875C46.1776 119.875 27.6397 101.157 25.6875 77.2937C38.2316 84.5376 52.9847 88.6732 68.5 88.6732C84.0153 88.6732 98.7684 84.5547 111.312 77.3108C109.36 101.183 90.8224 119.875 68.5 119.875Z" fill="url(#paint0_linear_1_116)"/>
<defs>
<linearGradient id="paint0_linear_1_116" x1="68.5" y1="0" x2="68.5" y2="137" gradientUnits="userSpaceOnUse">
<stop stop-color="#005676"/>
<stop offset="1" stop-color="#273081"/>
</linearGradient>
</defs>
</svg>
