<svg width="137" height="137" viewBox="0 0 137 137" fill="none" xmlns="http://www.w3.org/2000/svg">
<path d="M133.575 65.075H117.829L127.319 55.5832C127.646 55.2672 127.907 54.8893 128.086 54.4714C128.266 54.0536 128.36 53.6041 128.364 53.1494C128.368 52.6946 128.282 52.2436 128.109 51.8227C127.937 51.4018 127.683 51.0194 127.361 50.6978C127.04 50.3762 126.657 50.1219 126.236 49.9497C125.815 49.7775 125.364 49.6908 124.91 49.6947C124.455 49.6987 124.005 49.7932 123.588 49.9727C123.17 50.1522 122.792 50.4131 122.476 50.7402L108.141 65.075H97.4028L103.102 59.3804C103.429 59.0644 103.69 58.6865 103.869 58.2686C104.049 57.8508 104.143 57.4013 104.147 56.9466C104.151 56.4918 104.065 56.0408 103.892 55.6199C103.72 55.199 103.466 54.8165 103.144 54.495C102.823 54.1734 102.44 53.9191 102.019 53.7468C101.599 53.5746 101.148 53.488 100.693 53.4919C100.238 53.4959 99.7886 53.5904 99.3707 53.7699C98.9529 53.9494 98.5749 54.2103 98.259 54.5374L87.7169 65.075H76.7684L97.421 44.4245H117.695C118.603 44.4245 119.474 44.0637 120.116 43.4214C120.759 42.7791 121.12 41.9079 121.12 40.9995C121.12 40.0912 120.759 39.22 120.116 38.5777C119.474 37.9354 118.603 37.5745 117.695 37.5745H104.271L116.937 24.9066C117.264 24.5907 117.525 24.2127 117.704 23.7949C117.884 23.377 117.978 22.9276 117.982 22.4728C117.986 22.018 117.899 21.567 117.727 21.1461C117.555 20.7252 117.301 20.3428 116.979 20.0212C116.657 19.6996 116.275 19.4453 115.854 19.2731C115.433 19.1009 114.982 19.0142 114.527 19.0182C114.073 19.0221 113.623 19.1166 113.205 19.2961C112.787 19.4756 112.41 19.7365 112.094 20.0636L99.4281 32.7316V19.3079C99.4281 18.3995 99.0672 17.5283 98.4249 16.886C97.7826 16.2437 96.9114 15.8829 96.0031 15.8829C95.0947 15.8829 94.2236 16.2437 93.5813 16.886C92.939 17.5283 92.5781 18.3995 92.5781 19.3079V39.5816L71.9255 60.232V49.2835L82.463 38.7436C82.7902 38.4277 83.0511 38.0497 83.2306 37.6319C83.4101 37.214 83.5046 36.7646 83.5085 36.3098C83.5125 35.855 83.4258 35.404 83.2536 34.9831C83.0814 34.5622 82.8271 34.1798 82.5055 33.8582C82.1839 33.5366 81.8015 33.2823 81.3806 33.1101C80.9597 32.9379 80.5087 32.8512 80.0539 32.8552C79.5991 32.8591 79.1497 32.9536 78.7318 33.1331C78.314 33.3126 77.9361 33.5735 77.6201 33.9007L71.9255 39.5976V28.859L86.2625 14.5243C86.5896 14.2083 86.8505 13.8304 87.03 13.4125C87.2095 12.9947 87.304 12.5453 87.3079 12.0905C87.3119 11.6357 87.2252 11.1847 87.053 10.7638C86.8808 10.3429 86.6265 9.96046 86.3049 9.63888C85.9833 9.3173 85.6009 9.06298 85.18 8.89077C84.7591 8.71856 84.3081 8.6319 83.8533 8.63585C83.3986 8.6398 82.9492 8.73428 82.5313 8.91378C82.1134 9.09329 81.7355 9.35421 81.4196 9.68133L71.9255 19.1709V3.425C71.9255 2.51663 71.5647 1.64547 70.9224 1.00316C70.2801 0.360847 69.4089 0 68.5006 0C67.5922 0 66.7211 0.360847 66.0788 1.00316C65.4364 1.64547 65.0756 2.51663 65.0756 3.425V19.1709L55.5861 9.67905C55.2702 9.35193 54.8923 9.091 54.4744 8.9115C54.0566 8.732 53.6071 8.63752 53.1524 8.63357C52.6976 8.62961 52.2466 8.71627 51.8257 8.88849C51.4048 9.0607 51.0224 9.31501 50.7008 9.6366C50.3792 9.95818 50.1249 10.3406 49.9527 10.7615C49.7805 11.1824 49.6938 11.6334 49.6978 12.0882C49.7017 12.543 49.7962 12.9924 49.9757 13.4103C50.1552 13.8281 50.4161 14.2061 50.7432 14.522L65.0756 28.8568V39.5953L59.381 33.8984C59.0651 33.5712 58.6871 33.3103 58.2693 33.1308C57.8514 32.9513 57.402 32.8568 56.9472 32.8529C56.4925 32.8489 56.0415 32.9356 55.6206 33.1078C55.1996 33.28 54.8172 33.5343 54.4956 33.8559C54.1741 34.1775 53.9198 34.5599 53.7475 34.9808C53.5753 35.4017 53.4887 35.8527 53.4926 36.3075C53.4966 36.7623 53.5911 37.2117 53.7706 37.6296C53.9501 38.0474 54.211 38.4254 54.5381 38.7413L65.0756 49.2812V60.2298L44.4276 39.5793V19.3056C44.4276 18.3972 44.0667 17.5261 43.4244 16.8837C42.7821 16.2414 41.911 15.8806 41.0026 15.8806C40.0943 15.8806 39.2231 16.2414 38.5808 16.8837C37.9385 17.5261 37.5776 18.3972 37.5776 19.3056V32.7293L24.9075 20.0614C24.5916 19.7342 24.2137 19.4733 23.7958 19.2938C23.3779 19.1143 22.9285 19.0198 22.4738 19.0159C22.019 19.0119 21.568 19.0986 21.1471 19.2708C20.7262 19.443 20.3438 19.6973 20.0222 20.0189C19.7006 20.3405 19.4463 20.7229 19.2741 21.1438C19.1019 21.5647 19.0152 22.0157 19.0191 22.4705C19.0231 22.9253 19.1176 23.3747 19.2971 23.7926C19.4766 24.2104 19.7375 24.5884 20.0646 24.9043L32.7347 37.5723H19.3111C18.4028 37.5723 17.5316 37.9331 16.8893 38.5754C16.247 39.2177 15.8862 40.0889 15.8862 40.9972C15.8862 41.9056 16.247 42.7768 16.8893 43.4191C17.5316 44.0614 18.4028 44.4222 19.3111 44.4222H39.5847L60.2327 65.0727H49.2842L38.7467 54.5351C38.4308 54.208 38.0528 53.9471 37.635 53.7676C37.2171 53.5881 36.7677 53.4936 36.3129 53.4897C35.8582 53.4857 35.4072 53.5724 34.9862 53.7446C34.5653 53.9168 34.1829 54.1711 33.8613 54.4927C33.5398 54.8143 33.2854 55.1967 33.1132 55.6176C32.941 56.0385 32.8544 56.4895 32.8583 56.9443C32.8623 57.3991 32.9568 57.8485 33.1362 58.2663C33.3158 58.6842 33.5767 59.0621 33.9038 59.3781L39.5984 65.0727H28.8599L14.5276 50.7379C14.2116 50.4108 13.8337 50.1499 13.4159 49.9704C12.998 49.7909 12.5486 49.6964 12.0938 49.6925C11.639 49.6885 11.188 49.7752 10.7671 49.9474C10.3462 50.1196 9.9638 50.3739 9.64222 50.6955C9.32064 51.0171 9.06633 51.3995 8.89412 51.8204C8.72191 52.2413 8.63525 52.6923 8.6392 53.1471C8.64316 53.6019 8.73764 54.0513 8.91714 54.4692C9.09664 54.887 9.35756 55.2649 9.68468 55.5809L19.1741 65.0727H3.42611C2.51745 65.0727 1.64601 65.4337 1.00349 66.0762C0.360964 66.7187 0 67.5902 0 68.4989C0 69.4075 0.360964 70.279 1.00349 70.9215C1.64601 71.564 2.51745 71.925 3.42611 71.925H19.1718L9.68239 81.4168C9.3644 81.735 9.11219 82.1126 8.94015 82.5282C8.76812 82.9438 8.67962 83.3893 8.67973 83.8391C8.67983 84.2889 8.76854 84.7343 8.94077 85.1498C9.113 85.5654 9.3654 85.9429 9.68354 86.2609C10.0017 86.5789 10.3793 86.8311 10.7949 87.0032C11.2106 87.1752 11.656 87.2637 12.1058 87.2636C12.5556 87.2635 13.001 87.1748 13.4165 87.0025C13.8321 86.8303 14.2096 86.5779 14.5276 86.2598L28.8599 71.925H39.5984L33.9038 77.6196C33.2616 78.2621 32.9009 79.1335 32.9011 80.0419C32.9013 80.9504 33.2624 81.8215 33.9049 82.4637C34.5474 83.1059 35.4188 83.4666 36.3272 83.4664C37.2356 83.4662 38.1068 83.1051 38.749 82.4626L49.2865 71.925H60.235L39.587 92.5755H19.3134C18.4051 92.5755 17.5339 92.9363 16.8916 93.5786C16.2493 94.2209 15.8884 95.0921 15.8884 96.0005C15.8884 96.9088 16.2493 97.78 16.8916 98.4223C17.5339 99.0646 18.4051 99.4255 19.3134 99.4255H32.737L20.0669 112.093C19.7489 112.412 19.4967 112.789 19.3247 113.205C19.1526 113.62 19.0641 114.066 19.0642 114.516C19.0645 115.424 19.4255 116.295 20.068 116.937C20.7106 117.58 21.5819 117.94 22.4903 117.94C23.3987 117.94 24.2699 117.579 24.9121 116.936L37.5822 104.268V117.692C37.5822 118.6 37.9431 119.472 38.5854 120.114C39.2277 120.756 40.0988 121.117 41.0072 121.117C41.9155 121.117 42.7867 120.756 43.429 120.114C44.0713 119.472 44.4322 118.6 44.4322 117.692V97.4184L65.0802 76.7679V87.7165L54.5427 98.2564C53.9005 98.8989 53.5398 99.7702 53.54 100.679C53.5402 101.587 53.9013 102.458 54.5438 103.1C55.1863 103.743 56.0576 104.103 56.9661 104.103C57.8745 104.103 58.7457 103.742 59.3879 103.099L65.0825 97.4024V108.141L50.7501 122.473C50.4321 122.792 50.1799 123.169 50.0078 123.585C49.8358 124 49.7473 124.446 49.7474 124.896C49.7475 125.346 49.8362 125.791 50.0085 126.206C50.1807 126.622 50.4331 127 50.7512 127.318C51.0694 127.636 51.447 127.888 51.8626 128.06C52.2782 128.232 52.7237 128.32 53.1735 128.32C53.6233 128.32 54.0687 128.231 54.4842 128.059C54.8997 127.887 55.2773 127.635 55.5953 127.316L65.0847 117.827V133.575C65.0847 134.483 65.4456 135.355 66.0879 135.997C66.7302 136.639 67.6013 137 68.5097 137C69.4181 137 70.2892 136.639 70.9315 135.997C71.5738 135.355 71.9347 134.483 71.9347 133.575V117.829L81.4287 127.319C82.0977 127.988 82.9722 128.321 83.8513 128.321C84.5284 128.321 85.1904 128.12 85.7534 127.744C86.3164 127.368 86.7553 126.833 87.0146 126.207C87.2738 125.582 87.3418 124.893 87.21 124.229C87.0782 123.565 86.7524 122.955 86.2739 122.476L71.9255 108.141V97.4024L77.6201 103.099C78.2891 103.768 79.1682 104.102 80.0427 104.102C80.7199 104.102 81.3818 103.901 81.9448 103.525C82.5079 103.148 82.9467 102.614 83.206 101.988C83.4652 101.363 83.5333 100.674 83.4014 100.01C83.2696 99.3457 82.9438 98.7355 82.4653 98.2564L71.9255 87.7165V76.7679L92.5781 97.4184V117.692C92.5781 118.6 92.939 119.472 93.5813 120.114C94.2236 120.756 95.0947 121.117 96.0031 121.117C96.9114 121.117 97.7826 120.756 98.4249 120.114C99.0672 119.472 99.4281 118.6 99.4281 117.692V104.268L112.094 116.936C112.763 117.605 113.642 117.939 114.516 117.939C115.193 117.939 115.855 117.738 116.418 117.362C116.981 116.985 117.42 116.451 117.679 115.825C117.939 115.2 118.007 114.511 117.875 113.847C117.743 113.183 117.417 112.573 116.939 112.093L104.273 99.4255H117.697C118.605 99.4255 119.476 99.0646 120.119 98.4223C120.761 97.78 121.122 96.9088 121.122 96.0005C121.122 95.0921 120.761 94.2209 120.119 93.5786C119.476 92.9363 118.605 92.5755 117.697 92.5755H97.4233L76.7684 71.925H87.7169L98.259 82.4626C98.928 83.1316 99.8025 83.465 100.682 83.465C101.359 83.4648 102.021 83.264 102.584 82.8877C103.147 82.5115 103.586 81.9769 103.845 81.3513C104.104 80.7257 104.172 80.0374 104.04 79.3732C103.908 78.709 103.583 78.0988 103.104 77.6196L97.4028 71.925H108.141L122.474 86.2598C123.143 86.9288 124.022 87.2621 124.896 87.2621C125.573 87.262 126.235 87.0611 126.798 86.6849C127.361 86.3087 127.8 85.774 128.059 85.1485C128.319 84.5229 128.387 83.8346 128.255 83.1703C128.123 82.5061 127.797 81.8959 127.319 81.4168L117.829 71.925H133.575C134.483 71.925 135.355 71.5642 135.997 70.9218C136.639 70.2795 137 69.4084 137 68.5C137 67.5916 136.639 66.7205 135.997 66.0782C135.355 65.4358 134.483 65.075 133.575 65.075Z" fill="url(#paint0_linear_1_117)"/>
<defs>
<linearGradient id="paint0_linear_1_117" x1="68.5" y1="0" x2="68.5" y2="137" gradientUnits="userSpaceOnUse">
<stop stop-color="#005676"/>
<stop offset="1" stop-color="#273081"/>
</linearGradient>
</defs>
</svg>
