<svg width="189" height="156" viewBox="0 0 189 156" fill="none" xmlns="http://www.w3.org/2000/svg">
<path d="M69.4564 112.174L64.3948 96.9887C63.6605 94.7779 62.2482 92.8547 60.3585 91.4924C58.4688 90.1301 56.1979 89.3979 53.8683 89.4H44.4V82H29.6V89.4H20.1317C17.8021 89.3979 15.5312 90.1301 13.6415 91.4924C11.7518 92.8547 10.3395 94.7779 9.6052 96.9887L4.5436 112.174C3.19762 112.737 2.04817 113.685 1.23975 114.9C0.431321 116.114 -1.77933e-06 117.541 0 119V137.5C0 140.231 1.4948 142.591 3.7 143.875V152.3C3.7 153.281 4.08982 154.222 4.7837 154.916C5.47759 155.61 6.4187 156 7.4 156H11.1C12.0813 156 13.0224 155.61 13.7163 154.916C14.4102 154.222 14.8 153.281 14.8 152.3V144.9H59.2V152.3C59.2 153.281 59.5898 154.222 60.2837 154.916C60.9776 155.61 61.9187 156 62.9 156H66.6C67.5813 156 68.5224 155.61 69.2163 154.916C69.9102 154.222 70.3 153.281 70.3 152.3V143.875C71.4226 143.231 72.3556 142.303 73.0052 141.184C73.6547 140.065 73.9979 138.794 74 137.5V119C74 117.541 73.5687 116.114 72.7603 114.9C71.9518 113.685 70.8024 112.737 69.4564 112.174ZM20.1317 96.8H53.8646C55.4593 96.8 56.8727 97.8138 57.3759 99.3308L61.4681 111.6H12.5319L16.6204 99.3308C16.8659 98.5937 17.3372 97.9526 17.9674 97.4984C18.5976 97.0442 19.3548 96.7998 20.1317 96.8V96.8ZM12.95 133.8C12.2209 133.8 11.499 133.656 10.8255 133.377C10.1521 133.097 9.54016 132.688 9.02479 132.173C8.50943 131.657 8.10068 131.045 7.8219 130.371C7.54312 129.697 7.39976 128.975 7.4 128.246C7.40024 127.517 7.54409 126.795 7.82332 126.122C8.10255 125.448 8.5117 124.836 9.02741 124.321C9.54312 123.806 10.1553 123.397 10.829 123.118C11.5026 122.839 12.2246 122.696 12.9537 122.696C14.4261 122.697 15.8381 123.282 16.8789 124.324C17.9197 125.365 18.5042 126.778 18.5037 128.25C18.5032 129.722 17.9178 131.134 16.8763 132.175C15.8348 133.216 14.4224 133.8 12.95 133.8V133.8ZM61.05 133.8C60.3209 133.8 59.599 133.656 58.9255 133.377C58.2521 133.097 57.6402 132.688 57.1248 132.173C56.6094 131.657 56.2007 131.045 55.9219 130.371C55.6431 129.697 55.4998 128.975 55.5 128.246C55.5002 127.517 55.6441 126.795 55.9233 126.122C56.2026 125.448 56.6117 124.836 57.1274 124.321C57.6431 123.806 58.2553 123.397 58.929 123.118C59.6026 122.839 60.3246 122.696 61.0537 122.696C62.5261 122.697 63.9381 123.282 64.9789 124.324C66.0197 125.365 66.6042 126.778 66.6037 128.25C66.6032 129.722 66.0178 131.134 64.9763 132.175C63.9348 133.216 62.5224 133.8 61.05 133.8V133.8Z" fill="white"/>
<path d="M150.846 153.357V134.832C150.846 133.537 152.038 132.216 153.231 132.216H162.769C163.962 132.216 165.154 133.537 165.154 134.858V153.357C165.154 154.058 165.405 154.73 165.852 155.226C166.299 155.722 166.906 156 167.538 156H186.615C187.248 156 187.854 155.722 188.302 155.226C188.749 154.73 189 154.058 189 153.357V116.36C189.001 116.012 188.939 115.668 188.82 115.347C188.7 115.026 188.525 114.735 188.304 114.489L181.846 107.338V89.9328C181.846 89.2319 181.595 88.5597 181.148 88.0641C180.701 87.5685 180.094 87.2901 179.462 87.2901H174.692C174.06 87.2901 173.453 87.5685 173.006 88.0641C172.559 88.5597 172.308 89.2319 172.308 89.9328V96.7668L159.688 82.7764C159.467 82.5303 159.204 82.335 158.914 82.2018C158.624 82.0686 158.314 82 158 82C157.686 82 157.376 82.0686 157.086 82.2018C156.796 82.335 156.533 82.5303 156.312 82.7764L127.696 114.489C127.475 114.735 127.3 115.026 127.18 115.347C127.061 115.668 126.999 116.012 127 116.36V153.357C127 154.058 127.251 154.73 127.698 155.226C128.146 155.722 128.752 156 129.385 156H148.462C149.094 156 149.701 155.722 150.148 155.226C150.595 154.73 150.846 154.058 150.846 153.357Z" fill="white"/>
<path d="M38.8835 4.94595C38.3164 4.71759 37.6836 4.71759 37.1165 4.94595L8.7685 16.3389L20.1875 20.9257L49.419 9.17954L38.8835 4.94595ZM55.8125 11.7521L26.581 23.4983L38 28.0851L67.2315 16.3389L55.8125 11.7521V11.7521ZM71.25 19.8661L40.375 32.2757V70.0869L71.25 57.6773V19.8709V19.8661ZM35.625 70.0917V32.271L4.75 19.8661V57.682L35.625 70.0917V70.0917ZM35.3542 0.511899C37.0527 -0.170633 38.9473 -0.170633 40.6458 0.511899L74.5085 14.1243C74.9488 14.3016 75.3261 14.6073 75.5919 15.002C75.8578 15.3967 75.9999 15.8623 76 16.3389V57.682C75.9994 58.6358 75.7145 59.5675 75.1819 60.357C74.6494 61.1464 73.8937 61.7575 73.0123 62.1113L38.8835 75.8287C38.3164 76.0571 37.6836 76.0571 37.1165 75.8287L2.9925 62.1113C2.11019 61.7582 1.35348 61.1475 0.82005 60.358C0.286623 59.5684 0.000980064 58.6363 0 57.682L0 16.3389C0.00011039 15.8623 0.142233 15.3967 0.408058 15.002C0.673884 14.6073 1.05124 14.3016 1.4915 14.1243L35.3542 0.511899Z" fill="white"/>
<path d="M188.817 71.6644L183.058 50.1277V3.23404C183.058 1.44521 181.696 0 180.011 0H112.989C111.304 0 109.942 1.44521 109.942 3.23404V50.1277L104.183 71.6644C103.469 73.7766 104.935 76 107.048 76H185.952C188.065 76 189.531 73.7766 188.817 71.6644ZM116.797 7.2766H176.203V47.1968H116.797V7.2766V7.2766ZM138.532 68.7234L139.303 64.984H153.612L154.383 68.7234H138.532V68.7234ZM159.857 68.7234L158.038 59.9612C157.962 59.5872 157.648 59.3245 157.296 59.3245H135.628C135.266 59.3245 134.962 59.5872 134.885 59.9612L133.067 68.7234H112.094L116.121 53.6649H176.879L180.906 68.7234H159.857Z" fill="white"/>
</svg>
