<svg width="111" height="137" viewBox="0 0 111 137" fill="none" xmlns="http://www.w3.org/2000/svg">
<path d="M50.505 1.08344L7.33833 20.6167C2.89833 22.6266 0 27.1488 0 32.1106V61.6304C0 96.4888 23.68 129.086 55.5 137C87.32 129.086 111 96.4888 111 61.6304V32.1106C111 27.1488 108.102 22.6266 103.662 20.6167L60.495 1.08344C57.35 -0.361146 53.65 -0.361146 50.505 1.08344ZM38.7883 94.8558L22.8167 78.5885C22.2457 78.007 21.7929 77.3167 21.4839 76.557C21.1749 75.7972 21.0159 74.9829 21.0159 74.1606C21.0159 73.3382 21.1749 72.5239 21.4839 71.7642C21.7929 71.0044 22.2457 70.3141 22.8167 69.7326C23.3876 69.1511 24.0654 68.6899 24.8113 68.3752C25.5573 68.0605 26.3568 67.8985 27.1642 67.8985C27.9716 67.8985 28.7711 68.0605 29.517 68.3752C30.263 68.6899 30.9407 69.1511 31.5117 69.7326L43.1667 81.5405L79.4267 44.6094C79.9976 44.0279 80.6754 43.5667 81.4213 43.2519C82.1673 42.9373 82.9668 42.7753 83.7742 42.7753C84.5816 42.7753 85.3811 42.9373 86.127 43.2519C86.873 43.5667 87.5508 44.0279 88.1217 44.6094C88.6926 45.1909 89.1455 45.8812 89.4544 46.641C89.7634 47.4007 89.9225 48.215 89.9225 49.0374C89.9225 49.8597 89.7634 50.674 89.4544 51.4338C89.1455 52.1935 88.6926 52.8838 88.1217 53.4653L47.4833 94.8558C46.9128 95.4381 46.2352 95.9 45.4892 96.2152C44.7432 96.5304 43.9435 96.6926 43.1358 96.6926C42.3282 96.6926 41.5285 96.5304 40.7825 96.2152C40.0365 95.9 39.3588 95.4381 38.7883 94.8558Z" fill="white"/>
</svg>
