<svg width="23" height="23" viewBox="0 0 23 23" fill="none" xmlns="http://www.w3.org/2000/svg">
<path d="M22.1156 0.318578C21.9019 0.177232 21.6629 0.0801782 21.4124 0.0329608C21.1618 -0.0142566 20.9046 -0.0107123 20.6554 0.0433912C20.4062 0.0974946 20.1699 0.201097 19.96 0.34828C19.7501 0.495463 19.5707 0.683343 19.4321 0.901186L8.55967 17.9781L3.25735 12.9824C3.07027 12.8061 2.85096 12.6692 2.61193 12.5793C2.37291 12.4894 2.11884 12.4483 1.86425 12.4585C1.35008 12.479 0.864968 12.7068 0.515632 13.0918C0.166296 13.4768 -0.0186475 13.9874 0.00148752 14.5113C0.0216226 15.0353 0.245187 15.5296 0.622998 15.8856L7.58497 22.4445C7.58497 22.4445 7.78483 22.6198 7.87732 22.6811C8.09107 22.8226 8.33008 22.9197 8.58069 22.967C8.83131 23.0143 9.0886 23.0107 9.33788 22.9566C9.58716 22.9025 9.82353 22.7989 10.0335 22.6516C10.2434 22.5044 10.4228 22.3164 10.5615 22.0985L22.6874 3.05302C22.8261 2.83523 22.9213 2.59173 22.9677 2.33643C23.014 2.08113 23.0105 1.81903 22.9574 1.5651C22.9043 1.31117 22.8027 1.07038 22.6582 0.856501C22.5138 0.64262 22.3294 0.459831 22.1156 0.318578Z" fill="#262626" fill-opacity="0.3"/>
</svg>
